<svg version="1.1" id="Layer_1" xmlns="http://www.w3.org/2000/svg" xmlns:xlink="http://www.w3.org/1999/xlink" x="0px" y="0px"
	 width="100%" viewBox="0 0 248 248" enable-background="new 0 0 248 248" xml:space="preserve">
<path fill="#7AC8C9" opacity="1.000000" stroke="none" 
	d="
M249.000000,140.000000 
	C249.000000,141.388992 249.000000,142.778000 248.732910,144.181274 
	C247.533264,145.754257 246.384232,147.228012 245.729797,148.895844 
	C245.090225,150.525894 245.165970,152.431198 244.560867,154.081146 
	C242.401138,159.970047 239.942917,165.751495 237.857224,171.665146 
	C232.900513,185.719162 223.626572,196.818405 213.386780,207.144211 
	C203.311127,217.304474 191.090897,224.370758 177.662476,229.973267 
	C176.893494,230.000351 176.454514,230.016052 176.164001,229.666138 
	C176.506729,227.185043 176.700989,225.069565 176.915344,222.526413 
	C176.625092,218.399872 176.314758,214.701004 176.009918,210.552002 
	C176.012848,207.401917 176.010269,204.701996 176.020355,201.573456 
	C176.021683,199.429489 176.010361,197.714142 176.016937,195.561005 
	C176.010437,193.079056 175.986053,191.034866 175.989807,188.547363 
	C175.988281,185.731934 175.958588,183.359848 175.967377,180.561401 
	C176.355194,177.140106 176.704544,174.145187 177.379532,171.007156 
	C184.147110,162.692978 190.574188,154.681992 193.785858,144.361588 
	C198.328552,129.764038 198.572998,115.710945 193.366608,101.144142 
	C183.427979,73.337196 154.042145,55.986835 126.400787,58.220142 
	C126.752289,46.628559 126.784668,35.327297 126.916084,23.586830 
	C126.957207,20.752081 126.899300,18.356539 126.932411,15.531219 
	C127.013031,13.046683 127.002640,10.991923 127.459808,8.980228 
	C136.834274,9.364153 145.805557,9.147552 154.634140,10.166852 
	C170.885498,12.043149 185.579346,18.897736 198.483398,28.371033 
	C208.213013,35.513878 216.598969,44.706902 224.729477,53.754387 
	C235.760498,66.029518 242.323273,80.762009 245.653778,96.961349 
	C246.030304,98.792809 247.849686,100.327621 249.000000,102.000000 
	C249.000000,103.389000 249.000000,104.777992 248.777710,106.252350 
	C248.086365,107.418503 247.617310,108.499298 247.100372,110.073135 
	C247.314728,119.069000 247.576950,127.571823 247.772583,136.409973 
	C248.137329,137.830215 248.568665,138.915115 249.000000,140.000000 
z"/>
<path fill="#020202" opacity="1.000000" stroke="none" 
	d="
M177.992462,229.961914 
	C191.090897,224.370758 203.311127,217.304474 213.386780,207.144211 
	C223.626572,196.818405 232.900513,185.719162 237.857224,171.665146 
	C239.942917,165.751495 242.401138,159.970047 244.560867,154.081146 
	C245.165970,152.431198 245.090225,150.525894 245.729797,148.895844 
	C246.384232,147.228012 247.533264,145.754257 248.732910,144.597778 
	C249.000000,179.650681 249.000000,214.301361 249.000000,248.976013 
	C166.387436,248.976013 83.774872,248.976013 1.081154,248.976013 
	C1.081154,166.425629 1.081154,83.851143 1.081154,1.138330 
	C83.666519,1.138330 166.333221,1.138330 249.000000,1.138330 
	C249.000000,34.426731 249.000000,67.744705 249.000000,101.531342 
	C247.849686,100.327621 246.030304,98.792809 245.653778,96.961349 
	C242.323273,80.762009 235.760498,66.029518 224.729477,53.754387 
	C216.598969,44.706902 208.213013,35.513878 198.483398,28.371033 
	C185.579346,18.897736 170.885498,12.043149 154.634140,10.166852 
	C145.805557,9.147552 136.834274,9.364153 127.203400,8.652498 
	C120.311073,8.692183 114.142723,9.102660 107.633926,9.429977 
	C106.837646,9.244719 106.381813,9.142620 105.836044,8.812990 
	C105.549812,8.287769 105.273392,8.138659 104.456047,8.085535 
	C94.526108,8.021196 85.056877,7.979884 75.587822,8.003526 
	C52.003613,8.062407 28.419479,8.150857 4.569159,8.526768 
	C4.238328,11.973891 4.118263,15.121663 4.117102,18.269480 
	C4.089950,91.868530 4.075661,165.467590 4.235795,239.465179 
	C13.718931,239.958649 23.025352,240.139923 32.331604,240.131607 
	C55.612835,240.110809 78.893990,240.004044 103.085968,239.990784 
	C104.605064,240.064362 105.213356,240.078918 105.503120,240.141846 
	C110.443001,239.993164 115.709106,239.910492 120.957092,239.558151 
	C124.359329,239.329712 126.756020,240.071060 126.686821,243.977875 
	C143.737778,243.977875 160.442673,243.977875 177.347824,243.977875 
	C177.569229,239.164032 177.780853,234.562973 177.992462,229.961914 
z"/>
<path fill="#A5D9D8" opacity="1.000000" stroke="none" 
	d="
M247.839172,136.074646 
	C247.576950,127.571823 247.314728,119.069000 247.321564,110.153992 
	C247.590637,109.741814 247.958557,110.035515 248.017029,110.330399 
	C248.383652,110.750191 248.691833,110.875092 249.000000,111.000000 
	C249.000000,118.687584 249.000000,126.375160 248.712799,134.529541 
	C248.316010,135.359070 248.206421,135.721802 248.030884,136.122253 
	C247.964920,136.159973 247.839172,136.074646 247.839172,136.074646 
z"/>
<path fill="#020202" opacity="1.000000" stroke="none" 
	d="
M249.000000,139.600006 
	C248.568665,138.915115 248.137329,137.830215 247.772583,136.409973 
	C247.839172,136.074646 247.964920,136.159973 248.258804,136.123993 
	C248.552689,136.088028 249.000000,136.000000 249.000000,136.000000 
	C249.000000,137.066666 249.000000,138.133347 249.000000,139.600006 
z"/>
<path fill="#020202" opacity="1.000000" stroke="none" 
	d="
M247.958557,110.035515 
	C247.958557,110.035515 247.590637,109.741814 247.369446,109.660950 
	C247.617310,108.499298 248.086365,107.418503 248.777710,106.668854 
	C249.000000,107.750000 249.000000,108.500000 248.739807,109.638580 
	C248.305923,110.029938 248.132248,110.032730 247.958557,110.035515 
z"/>
<path fill="#596867" opacity="1.000000" stroke="none" 
	d="
M249.000000,135.750000 
	C249.000000,136.000000 248.552689,136.088028 248.324768,136.086273 
	C248.206421,135.721802 248.316010,135.359070 248.712799,134.998169 
	C249.000000,135.000000 249.000000,135.500000 249.000000,135.750000 
z"/>
<path fill="#596867" opacity="1.000000" stroke="none" 
	d="
M248.017029,110.330399 
	C248.132248,110.032730 248.305923,110.029938 248.739807,110.013580 
	C249.000000,110.000000 249.000000,110.500000 249.000000,110.750000 
	C248.691833,110.875092 248.383652,110.750191 248.017029,110.330399 
z"/>
<path fill="#000000" opacity="1.000000" stroke="none" 
	d="
M126.081650,58.510464 
	C154.042145,55.986835 183.427979,73.337196 193.366608,101.144142 
	C198.572998,115.710945 198.328552,129.764038 193.785858,144.361588 
	C190.574188,154.681992 184.147110,162.692978 177.100952,170.896729 
	C176.014526,170.583908 175.532303,170.238419 175.031616,169.456360 
	C174.953354,166.682861 174.893570,164.345917 174.926926,161.668442 
	C175.295837,160.229370 175.571609,159.130829 175.927032,157.630234 
	C177.959976,149.547928 177.566315,149.020477 169.706879,149.027451 
	C156.812790,149.038910 143.917984,149.153305 131.025208,149.034958 
	C128.020676,149.007385 126.669525,149.922714 126.946716,153.427002 
	C126.853783,165.576614 126.841919,177.258682 126.607437,188.998352 
	C126.384811,189.055984 125.951363,189.209747 125.526581,189.149872 
	C119.710327,189.455261 114.318863,189.820526 108.724731,190.130981 
	C108.522064,190.076141 108.111237,189.989304 107.843040,189.645081 
	C91.049591,189.250351 74.524330,189.199829 57.635681,188.945923 
	C56.784767,187.079834 55.874481,185.417847 55.871658,183.754318 
	C55.803783,143.772018 55.814980,103.789520 55.900677,63.807247 
	C55.904739,61.911610 56.725548,60.017723 57.624184,58.119987 
	C71.465248,58.104172 84.848289,58.055660 98.230812,58.118519 
	C100.156944,58.127567 102.080544,58.672913 104.438995,59.063900 
	C111.246117,58.731190 117.619553,58.304646 124.249481,58.031094 
	C125.031197,58.292881 125.556419,58.401672 126.081650,58.510464 
z"/>
<path fill="#014475" opacity="1.000000" stroke="none" 
	d="
M123.992989,57.878105 
	C117.619553,58.304646 111.246117,58.731190 104.511490,58.655136 
	C104.423904,56.529984 104.932930,54.907623 104.934357,53.284824 
	C104.947311,38.547451 104.871666,23.809998 104.850456,9.015511 
	C104.878960,8.958451 105.003189,8.962962 105.233231,8.990158 
	C105.463272,9.017353 105.925972,9.040522 105.925972,9.040522 
	C106.381813,9.142620 106.837646,9.244719 107.832397,9.731384 
	C110.419380,10.409420 112.460777,10.884120 114.516869,10.959829 
	C119.263741,11.134618 124.623756,9.611299 126.841393,15.960995 
	C126.899300,18.356539 126.957207,20.752081 126.566849,23.742771 
	C125.747101,26.189333 125.130898,28.029533 125.045456,29.894056 
	C124.618164,39.218567 124.330040,48.549458 123.992989,57.878105 
z"/>
<path fill="#69BBBF" opacity="1.000000" stroke="none" 
	d="
M176.895248,222.954102 
	C176.700989,225.069565 176.506729,227.185043 176.157684,230.097015 
	C175.969223,232.910858 175.935547,234.928192 175.551590,236.890778 
	C165.129456,231.124405 153.882324,233.250763 143.158585,232.451935 
	C137.794067,232.052338 132.158096,234.814484 127.386703,229.569824 
	C127.346252,225.082718 127.416237,221.047348 127.821091,217.050476 
	C131.436188,218.558899 134.617401,220.343765 138.023178,221.414261 
	C141.777191,222.594208 145.705566,223.518356 149.615601,223.829193 
	C154.794037,224.240860 160.032333,224.078613 165.237335,223.917816 
	C169.129517,223.797577 173.009720,223.289490 176.895248,222.954102 
z"/>
<path fill="#61B3B7" opacity="1.000000" stroke="none" 
	d="
M176.915344,222.526413 
	C173.009720,223.289490 169.129517,223.797577 165.237335,223.917816 
	C160.032333,224.078613 154.794037,224.240860 149.615601,223.829193 
	C145.705566,223.518356 141.777191,222.594208 138.023178,221.414261 
	C134.617401,220.343765 131.436188,218.558899 127.716156,216.622437 
	C127.345703,214.108170 127.415054,212.060455 127.834251,210.039215 
	C136.874481,214.044449 146.048065,214.580841 155.356903,213.635086 
	C162.257355,212.934006 169.123169,211.892181 176.004425,211.002151 
	C176.314758,214.701004 176.625092,218.399872 176.915344,222.526413 
z"/>
<path fill="#54A4A8" opacity="1.000000" stroke="none" 
	d="
M175.999039,195.998779 
	C176.010361,197.714142 176.021683,199.429489 175.570801,201.572723 
	C169.192368,202.558029 163.285995,203.406586 157.357681,203.607407 
	C147.486450,203.941803 137.601166,203.860992 127.681519,203.497559 
	C127.633614,199.013336 127.625992,194.986542 128.024445,190.980408 
	C135.316589,192.325348 142.257614,194.944733 149.075195,194.655380 
	C158.176788,194.269073 167.113541,193.435562 175.999039,195.998779 
z"/>
<path fill="#5AACAF" opacity="1.000000" stroke="none" 
	d="
M127.721802,203.955002 
	C137.601166,203.860992 147.486450,203.941803 157.357681,203.607407 
	C163.285995,203.406586 169.192368,202.558029 175.558167,202.001328 
	C176.010269,204.701996 176.012848,207.401917 176.009918,210.552002 
	C169.123169,211.892181 162.257355,212.934006 155.356903,213.635086 
	C146.048065,214.580841 136.874481,214.044449 127.755173,209.670013 
	C127.458099,207.501221 127.589951,205.728104 127.721802,203.955002 
z"/>
<path fill="#4C9AA0" opacity="1.000000" stroke="none" 
	d="
M176.016937,195.561005 
	C167.113541,193.435562 158.176788,194.269073 149.075195,194.655380 
	C142.257614,194.944733 135.316589,192.325348 127.876358,190.796249 
	C126.865242,190.130875 126.408302,189.670319 125.951363,189.209747 
	C125.951363,189.209747 126.384811,189.055984 126.862686,188.932465 
	C127.577644,188.556503 127.814720,188.304077 128.280823,188.116302 
	C129.009995,187.791336 129.510117,187.401718 130.469696,187.008789 
	C144.153885,187.355972 157.499084,182.313309 170.626404,187.959381 
	C172.251984,188.658524 174.175980,188.663849 175.961670,188.990677 
	C175.986053,191.034866 176.010437,193.079056 176.016937,195.561005 
z"/>
<path fill="#489398" opacity="1.000000" stroke="none" 
	d="
M175.989822,188.547363 
	C174.175980,188.663849 172.251984,188.658524 170.626404,187.959381 
	C157.499084,182.313309 144.153885,187.355972 130.462662,186.613464 
	C129.971359,185.426254 129.946533,184.631073 129.918182,183.527802 
	C129.929001,182.809067 129.943298,182.398422 130.338104,181.975403 
	C132.419235,181.337952 134.081589,180.560379 135.829010,180.121719 
	C138.812775,179.372696 141.830322,178.447098 144.868835,178.294067 
	C150.613861,178.004715 156.391159,178.037659 162.140457,178.280960 
	C165.181076,178.409622 168.198792,179.222412 171.211670,179.804871 
	C172.800919,180.112106 174.357544,180.587997 175.928909,180.987762 
	C175.958588,183.359848 175.988281,185.731934 175.989822,188.547363 
z"/>
<path fill="#438C91" opacity="1.000000" stroke="none" 
	d="
M175.967377,180.561401 
	C174.357544,180.587997 172.800919,180.112106 171.211670,179.804871 
	C168.198792,179.222412 165.181076,178.409622 162.140457,178.280960 
	C156.391159,178.037659 150.613861,178.004715 144.868835,178.294067 
	C141.830322,178.447098 138.812775,179.372696 135.829010,180.121719 
	C134.081589,180.560379 132.419235,181.337952 130.330566,181.532547 
	C129.955368,178.733200 129.968201,176.364365 130.358795,173.922821 
	C134.547913,173.416153 138.619736,171.901978 142.122711,172.746735 
	C153.547043,175.501740 164.099670,170.894791 175.050079,169.892929 
	C175.532303,170.238419 176.014526,170.583908 176.775330,171.039825 
	C176.704544,174.145187 176.355194,177.140106 175.967377,180.561401 
z"/>
<path fill="#94C1C2" opacity="1.000000" stroke="none" 
	d="
M175.901871,236.945511 
	C175.935547,234.928192 175.969223,232.910858 176.009216,230.462646 
	C176.454514,230.016052 176.893494,230.000351 177.662476,229.973267 
	C177.780853,234.562973 177.569229,239.164032 177.347824,243.977875 
	C160.442673,243.977875 143.737778,243.977875 126.686821,243.977875 
	C126.756020,240.071060 124.359329,239.329712 120.957092,239.558151 
	C115.709106,239.910492 110.443001,239.993164 105.495651,240.161957 
	C106.708153,240.128067 107.609581,240.122437 108.673813,240.728088 
	C112.723511,241.643616 116.645462,242.388290 120.483856,242.082840 
	C122.697906,241.906647 124.776955,240.034073 127.162827,239.218811 
	C128.001602,242.613876 130.093475,243.071136 132.888229,243.044891 
	C145.308456,242.928238 157.733124,242.834991 170.150192,243.061310 
	C174.787735,243.145844 176.626465,241.473709 175.901871,236.945511 
z"/>
<path fill="#043E68" opacity="1.000000" stroke="none" 
	d="
M124.249481,58.031097 
	C124.330040,48.549458 124.618164,39.218567 125.045456,29.894056 
	C125.130898,28.029533 125.747101,26.189333 126.467812,24.181976 
	C126.784668,35.327297 126.752289,46.628559 126.400787,58.220142 
	C125.556419,58.401672 125.031197,58.292881 124.249481,58.031097 
z"/>
<path fill="#0E3A5F" opacity="1.000000" stroke="none" 
	d="
M126.932411,15.531219 
	C124.623756,9.611299 119.263741,11.134618 114.516869,10.959829 
	C112.460777,10.884120 110.419380,10.409420 108.172836,9.814545 
	C114.142723,9.102660 120.311073,8.692183 126.735840,8.609434 
	C127.002640,10.991923 127.013031,13.046683 126.932411,15.531219 
z"/>
<path fill="#0055A2" opacity="1.000000" stroke="none" 
	d="
M108.511017,240.116806 
	C107.609581,240.122437 106.708153,240.128067 105.814186,240.113602 
	C105.213356,240.078918 104.605064,240.064362 102.813858,239.644989 
	C99.813995,239.143982 97.997192,238.966751 96.180084,238.963654 
	C66.104362,238.912216 36.028595,238.882645 5.952365,238.389053 
	C5.968298,161.751373 5.984706,85.572823 6.463311,9.299084 
	C39.557659,9.160126 72.189812,9.116347 104.821960,9.072570 
	C104.871666,23.809998 104.947311,38.547451 104.934357,53.284824 
	C104.932930,54.907623 104.423904,56.529984 104.077805,58.561310 
	C102.080544,58.672913 100.156944,58.127567 98.230812,58.118519 
	C84.848289,58.055660 71.465248,58.104172 57.208153,58.087234 
	C55.556713,59.777142 54.106064,61.494797 54.101017,63.216686 
	C53.982922,103.534515 54.020996,143.852798 54.031311,184.171005 
	C54.031483,184.837357 54.055725,185.503830 54.048237,186.170013 
	C54.018242,188.840225 55.176682,190.265366 58.465935,189.991669 
	C75.326538,190.009460 91.718887,189.999390 108.111237,189.989304 
	C108.111237,189.989304 108.522064,190.076141 108.736862,190.579865 
	C108.643616,199.678192 108.165161,208.271072 108.078079,216.867920 
	C107.999596,224.615280 108.349846,232.367004 108.511017,240.116806 
z"/>
<path fill="#1F5688" opacity="1.000000" stroke="none" 
	d="
M6.001114,9.394265 
	C5.984706,85.572823 5.968298,161.751373 5.641402,238.453125 
	C4.906944,239.006439 4.482973,239.036545 4.059002,239.066650 
	C4.075661,165.467590 4.089950,91.868530 4.117102,18.269480 
	C4.118263,15.121663 4.238328,11.973891 4.732098,8.751572 
	C5.441167,8.916118 5.721140,9.155191 6.001114,9.394265 
z"/>
<path fill="#7E90A0" opacity="1.000000" stroke="none" 
	d="
M6.463311,9.299084 
	C5.721140,9.155191 5.441167,8.916118 4.998254,8.452240 
	C28.419479,8.150857 52.003613,8.062407 75.587822,8.003526 
	C85.056877,7.979884 94.526108,8.021196 104.479767,8.291329 
	C104.964287,8.549714 105.003189,8.962962 105.003189,8.962962 
	C105.003189,8.962962 104.878960,8.958451 104.850464,9.015511 
	C72.189812,9.116347 39.557659,9.160126 6.463311,9.299084 
z"/>
<path fill="#AAC4DA" opacity="1.000000" stroke="none" 
	d="
M4.235795,239.465179 
	C4.482973,239.036545 4.906944,239.006439 5.641877,238.912262 
	C36.028595,238.882645 66.104362,238.912216 96.180084,238.963654 
	C97.997192,238.966751 99.813995,239.143982 101.903061,239.585968 
	C78.893990,240.004044 55.612835,240.110809 32.331604,240.131607 
	C23.025352,240.139923 13.718931,239.958649 4.235795,239.465179 
z"/>
<path fill="#0E3A5F" opacity="1.000000" stroke="none" 
	d="
M105.233231,8.990158 
	C105.003189,8.962962 104.964287,8.549714 104.940567,8.343920 
	C105.273392,8.138659 105.549812,8.287769 105.836044,8.812990 
	C105.925972,9.040522 105.463272,9.017353 105.233231,8.990158 
z"/>
<path fill="#024575" opacity="1.000000" stroke="none" 
	d="
M108.673805,240.728088 
	C108.349846,232.367004 107.999596,224.615280 108.078079,216.867920 
	C108.165161,208.271072 108.643616,199.678192 108.939529,190.634705 
	C114.318863,189.820526 119.710327,189.455261 125.526581,189.149872 
	C126.408302,189.670319 126.865242,190.130875 127.470276,190.775589 
	C127.625992,194.986542 127.633614,199.013336 127.681519,203.497559 
	C127.589951,205.728104 127.458099,207.501221 127.405327,209.643524 
	C127.415054,212.060455 127.345703,214.108170 127.381287,216.583923 
	C127.416237,221.047348 127.346252,225.082718 127.290985,230.007629 
	C127.176048,233.573105 127.046410,236.249069 126.916771,238.925049 
	C124.776955,240.034073 122.697906,241.906647 120.483856,242.082840 
	C116.645462,242.388290 112.723511,241.643616 108.673805,240.728088 
z"/>
<path fill="#3C8084" opacity="1.000000" stroke="none" 
	d="
M175.847382,158.032288 
	C175.571609,159.130829 175.295837,160.229370 174.570404,161.683670 
	C171.081116,163.615707 168.124603,166.318863 164.985809,166.550385 
	C156.615906,167.167709 148.163040,166.874344 139.752762,166.622162 
	C136.486298,166.524200 133.245651,165.564865 129.987091,164.582001 
	C129.992142,162.779419 130.003326,161.392776 130.447937,160.004211 
	C134.655640,160.235870 138.727142,161.467316 142.129944,160.453720 
	C146.511444,159.148651 150.629257,158.008270 155.128204,159.007339 
	C160.214294,160.136795 164.870499,159.306442 169.294464,156.492859 
	C170.640381,155.636856 172.427338,155.474350 174.030121,155.324402 
	C174.647766,156.447159 175.247574,157.239716 175.847382,158.032288 
z"/>
<path fill="#3F868B" opacity="1.000000" stroke="none" 
	d="
M129.993256,164.997910 
	C133.245651,165.564865 136.486298,166.524200 139.752762,166.622162 
	C148.163040,166.874344 156.615906,167.167709 164.985809,166.550385 
	C168.124603,166.318863 171.081116,163.615707 174.477264,162.024200 
	C174.893570,164.345917 174.953354,166.682861 175.031616,169.456360 
	C164.099670,170.894791 153.547043,175.501740 142.122711,172.746735 
	C138.619736,171.901978 134.547913,173.416153 130.348969,173.473389 
	C129.972000,170.397079 129.982620,167.697495 129.993256,164.997910 
z"/>
<path fill="#436786" opacity="1.000000" stroke="none" 
	d="
M57.997681,189.963791 
	C55.176682,190.265366 54.018242,188.840225 54.048237,186.170013 
	C54.055725,185.503830 54.031483,184.837357 54.031311,184.171005 
	C54.020996,143.852798 53.982922,103.534515 54.101017,63.216686 
	C54.106064,61.494797 55.556713,59.777142 56.749969,58.090263 
	C56.725548,60.017723 55.904739,61.911610 55.900677,63.807247 
	C55.814980,103.789520 55.803783,143.772018 55.871658,183.754318 
	C55.874481,185.417847 56.784767,187.079834 57.635334,189.149536 
	C57.998386,189.556534 57.997681,189.963791 57.997681,189.963791 
z"/>
<path fill="#33686B" opacity="1.000000" stroke="none" 
	d="
M129.987091,164.582001 
	C129.982620,167.697495 129.972000,170.397079 129.971207,173.546097 
	C129.968201,176.364365 129.955368,178.733200 129.950073,181.544891 
	C129.943298,182.398422 129.929001,182.809067 129.695190,183.205902 
	C129.331223,179.400558 129.239288,175.606125 129.029175,171.818253 
	C128.757385,166.918304 128.391251,162.023605 128.054230,156.755280 
	C127.704407,155.242401 127.366104,154.100922 127.027802,152.959427 
	C126.669525,149.922714 128.020676,149.007385 131.025208,149.034958 
	C143.917984,149.153305 156.812790,149.038910 169.706879,149.027451 
	C177.566315,149.020477 177.959976,149.547928 175.927032,157.630234 
	C175.247574,157.239716 174.647766,156.447159 173.993637,154.922485 
	C172.331711,153.454132 170.735458,152.110672 169.114655,152.080368 
	C158.801453,151.887543 148.482849,151.978836 138.166016,151.987610 
	C130.005295,151.994553 130.005295,152.001602 130.014526,160.006119 
	C130.003326,161.392776 129.992142,162.779419 129.987091,164.582001 
z"/>
<path fill="#416888" opacity="1.000000" stroke="none" 
	d="
M58.465935,189.991669 
	C57.997681,189.963791 57.998386,189.556534 57.998734,189.352905 
	C74.524330,189.199829 91.049591,189.250351 107.843040,189.645081 
	C91.718887,189.999390 75.326538,190.009460 58.465935,189.991669 
z"/>
<path fill="#4A6163" opacity="1.000000" stroke="none" 
	d="
M126.946716,153.427002 
	C127.366104,154.100922 127.704407,155.242401 128.052322,157.209442 
	C128.058563,168.040543 128.055176,178.046097 128.051788,188.051636 
	C127.814720,188.304077 127.577644,188.556503 127.085312,188.874847 
	C126.841919,177.258682 126.853783,165.576614 126.946716,153.427002 
z"/>
<path fill="#6FC2C7" opacity="1.000000" stroke="none" 
	d="
M127.162827,239.218811 
	C127.046410,236.249069 127.176048,233.573105 127.401413,230.459351 
	C132.158096,234.814484 137.794067,232.052338 143.158585,232.451935 
	C153.882324,233.250763 165.129456,231.124405 175.551590,236.890778 
	C176.626465,241.473709 174.787735,243.145844 170.150192,243.061310 
	C157.733124,242.834991 145.308456,242.928238 132.888229,243.044891 
	C130.093475,243.071136 128.001602,242.613876 127.162827,239.218811 
z"/>
<path fill="#4F8587" opacity="1.000000" stroke="none" 
	d="
M128.280823,188.116302 
	C128.055176,178.046097 128.058563,168.040543 128.063843,157.580826 
	C128.391251,162.023605 128.757385,166.918304 129.029175,171.818253 
	C129.239288,175.606125 129.331223,179.400558 129.698700,183.513977 
	C129.946533,184.631073 129.971359,185.426254 130.003220,186.616776 
	C129.510117,187.401718 129.009995,187.791336 128.280823,188.116302 
z"/>
<path fill="#387A7F" opacity="1.000000" stroke="none" 
	d="
M130.447937,160.004211 
	C130.005295,152.001602 130.005295,151.994553 138.166016,151.987610 
	C148.482849,151.978836 158.801453,151.887543 169.114655,152.080368 
	C170.735458,152.110672 172.331711,153.454132 173.975800,154.592316 
	C172.427338,155.474350 170.640381,155.636856 169.294464,156.492859 
	C164.870499,159.306442 160.214294,160.136795 155.128204,159.007339 
	C150.629257,158.008270 146.511444,159.148651 142.129944,160.453720 
	C138.727142,161.467316 134.655640,160.235870 130.447937,160.004211 
z"/>
</svg>